<svg version="1.2" xmlns="http://www.w3.org/2000/svg" viewBox="0 0 512 512" width="512" height="512">
	<style>
		tspan { white-space:pre } 
		.s0 { fill: #2b1248;stroke: #c4a35a;stroke-width: 10 } 
		.s1 { fill: none;stroke: #c4a35a;stroke-linecap: round;stroke-linejoin: round;stroke-width: 14 } 
		.s2 { fill: #c4a35a } 
		.t3 { font-size: 70px;fill: #c4a35a;font-weight: 400;font-family: "EBGaramond08-Regular", "EB Garamond" } 
	</style>
	<path fill-rule="evenodd" class="s0" d="m88 16h336c39.76 0 72 32.24 72 72v336c0 39.76-32.24 72-72 72h-336c-39.76 0-72-32.24-72-72v-336c0-39.76 32.24-72 72-72z"/>
	<g>
		<path class="s1" d="m184.43 318.23v-225.63l200.56-37.6v225.62"/>
		<path fill-rule="evenodd" class="s2" d="m155.6 355.83c-20.79 0-37.6-16.81-37.6-37.6 0-20.8 16.81-37.61 37.6-37.61 20.8 0 37.61 16.81 37.61 37.61 0 20.79-16.81 37.6-37.61 37.6z"/>
		<path fill-rule="evenodd" class="s2" d="m356.16 318.23c-20.8 0-37.61-16.81-37.61-37.61 0-20.79 16.81-37.6 37.61-37.6 20.79 0 37.6 16.81 37.6 37.6 0 20.8-16.81 37.61-37.6 37.61z"/>
		<path fill-rule="evenodd" class="s1" d="m183.18 142.74l200.55-40.11"/>
	</g>
	<text id="MUSIC" transform="translate(157,430)">
		<tspan x="0" y="0" class="t3">M</tspan><tspan  y="0" class="t3">U</tspan><tspan  y="0" class="t3">S</tspan><tspan  y="0" class="t3">I</tspan><tspan  y="0" class="t3">C
</tspan>
	</text>
</svg>