<svg version="1.2" xmlns="http://www.w3.org/2000/svg" viewBox="0 0 512 512" width="512" height="512">
	<style>
		.s0 { fill: #2b1248;stroke: #c4a35a;stroke-width: 10 } 
		.s1 { fill: none;stroke: #c4a35a;stroke-linecap: round;stroke-linejoin: round;stroke-width: 14 } 
		.s2 { fill: #c4a35a } 
	</style>
	<path fill-rule="evenodd" class="s0" d="m88 16h336c39.76 0 72 32.24 72 72v336c0 39.76-32.24 72-72 72h-336c-39.76 0-72-32.24-72-72v-336c0-39.76 32.24-72 72-72z"/>
	<g>
		<path class="s1" d="m184.43 318.23v-225.63l200.56-37.6v225.62"/>
		<path fill-rule="evenodd" class="s2" d="m155.6 355.83c-20.79 0-37.6-16.81-37.6-37.6 0-20.8 16.81-37.61 37.6-37.61 20.8 0 37.61 16.81 37.61 37.61 0 20.79-16.81 37.6-37.61 37.6z"/>
		<path fill-rule="evenodd" class="s2" d="m356.16 318.23c-20.8 0-37.61-16.81-37.61-37.61 0-20.79 16.81-37.6 37.61-37.6 20.79 0 37.6 16.81 37.6 37.6 0 20.8-16.81 37.61-37.6 37.61z"/>
		<path fill-rule="evenodd" class="s1" d="m183.18 142.74l200.55-40.11"/>
		<path id="MUSIC" class="s2" aria-label="MUSIC"  d="m206.8 433l-1.2-23.1c-0.2-4 0.5-5.4 2.7-6.3 2.8-1.2 3.4-1.4 3.4-2.1 0-0.7-0.3-1.2-1.2-1.2-2.2 0-7 0.7-8.8 0.7-1.9 0-2.8 0-3.6 1.6l-11 22.8c-1.3 2.7-1.6 1.5-2.2 0.1l-8.2-20.1c-1.3-3.2-2.5-4.4-4.4-4.4-3.2 0-5.2-0.4-7.7-0.4-0.9 0-2.4 0-2.4 1 0 1.1 2.5 2.2 3.8 3.4 1.7 1.6 2.8 2.9 2.2 7.9l-2.4 18.6c-0.5 3.5-1.7 6.3-4 7.4-1.7 0.7-3.9 1-3.9 2.1 0 0.7 1.5 1.1 2.3 1.1 0.5 0 3.2-0.4 6.5-0.4 3.3 0 6.4 0.4 6.9 0.4 0.8 0 2.2-0.4 2.2-1.1 0-1.1-2.3-1.4-3.8-2.1-1.8-0.9-2.3-4.3-2.2-6.2l1.2-19.5c0.1-1.9 0.7-2.8 1.7-0.1l8.7 22c1.4 3.8 2 4.4 2.7 4.4 0.6 0 3.6-6 3.8-6.7l9.5-21.7c0.5-1.3 1.8-1.6 1.8-0.2l0.9 22.1c0.2 2.6-0.9 4.8-3.3 5.8-1.5 0.7-3.8 1.1-3.8 2.1 0 0.7 1.5 1.2 2.3 1.2 0.5 0 4.6-0.4 7.9-0.4 3.4 0 8 0.4 8.5 0.4 0.7 0 2.2-0.5 2.2-1.2 0-1-2.3-1.4-3.8-2.1-2.4-1-3.2-3.2-3.3-5.8zm46.4-25.4c0-2.8 0.6-3.5 3.9-4.5 0.6-0.2 1.1-0.6 1.1-1.2 0-0.9-1.4-1.3-2.4-1.3-1.1 0-3.4 0.4-4.5 0.4-1 0-3.5-0.4-4.5-0.4-1.1 0-2.5 0.4-2.5 1.3 0 0.6 0.6 1 1.2 1.2 2.9 1 3.7 1 3.7 4.6v13c0 10.9-2.4 18.2-12 18.2-8.5 0-10.5-5.6-10.5-16.8v-14c0-2.8 1.7-4 4.7-5 0.6-0.2 1-0.6 1-1.2 0-0.9-1.4-1.3-2.4-1.3-2.4 0-5.6 0.4-8 0.4-2.5 0-2.8-0.4-5.5-0.4-1.1 0-2.5 0.4-2.5 1.3 0 0.6 0.5 1 1.1 1.2 4.4 1.4 4.9 1.8 4.9 5.2v16.3c0 10.7 3.2 17.8 15.8 17.8 10.3 0 17.4-7.1 17.4-17.9zm20-7.6c-6.8 0-12.4 5.1-12.4 11.7 0 3.5 1.6 6 4.1 8.1l9.5 8c1.7 1.4 2.8 3.2 2.8 5.6 0 3.5-2.6 6.7-6.1 6.7-4.1 0-6.8-2.1-7.6-4.6-0.6-2.1-1.2-3.3-2.4-3.3-0.7 0-1.1 0.8-1.3 1.7-0.2 0.9-0.4 3.9-0.4 4.9 0 0.9 0.6 1.3 3.2 2.5 1.7 0.7 4.9 1.5 7.4 1.5 7 0 14-5.1 14-12 0-2.9-1.2-5.3-3.3-7.1l-9.9-8.3c-2.1-1.8-3.6-3.6-3.6-5.9 0-3.1 2.8-5.5 5.8-5.5 2 0 4.8 0.8 5.5 2.5 1 2.5 2 3.2 2.8 3.2 1 0 1.4-1 1.4-1.9 0-1.3-0.1-2.9-0.3-4-0.1-0.8-0.8-1.3-2.1-2-1.5-0.8-4.8-1.8-7.1-1.8zm32.4 0.7c-2.4 0-5.3 0.3-7.7 0.3-2.5 0-5-0.3-7.8-0.3-1 0-2.4 0.4-2.4 1.2 0 0.7 0.5 1 1.1 1.2 4 1.1 5.7 1.2 5.7 5.2v25.5c0 2.6-0.9 4-3.3 5.1-1.5 0.7-3.8 1-3.8 2.1 0 0.7 1.5 1.1 2.3 1.2 0.5 0 4.6-0.4 7.9-0.4 3.4 0 8 0.4 8.5 0.4 0.8-0.1 2.2-0.5 2.2-1.2 0-1.1-2.3-1.4-3.8-2.1-2.4-1.1-3.3-2.5-3.3-5.1v-25.5c0-4 1.8-4.1 5.8-5.2 0.6-0.2 1-0.5 1-1.2 0-0.8-1.4-1.2-2.4-1.2zm32-1.2c-13.8 0-25.4 9.5-25.4 23.3 0 12.4 12.2 20.4 24 20.4 3.9 0 8.8-0.8 11.6-1.8 1.8-0.6 2.1-1.1 3.3-3.4 0.6-1.4 2.8-6.1 2.8-6.7 0-1.2-0.6-1.9-1.2-1.9-0.5 0-0.9 0.1-1.2 0.5-3.7 5.3-5.3 10.2-12.4 10.2-11.1 0-19-9.5-19-20.3 0-9.6 7-17.2 16.1-17.2 4.9 0 11.6 1.8 12.6 4.9 0.9 3 1.8 4.4 2.8 4.4 0.8 0 1.3-0.7 1.3-1.9 0-3.9-0.5-7.6-2.1-7.7-1.6-0.2-7.9-2.8-13.2-2.8z"/>
	</g>
</svg>