<svg xmlns="http://www.w3.org/2000/svg" viewBox="0 0 512 512"><defs><linearGradient id="g" x1="0" y1="0" x2="1" y2="1"><stop offset="0%" stop-color="#f4d58d"/><stop offset="50%" stop-color="#c4a35a"/><stop offset="100%" stop-color="#8f6b2e"/></linearGradient><linearGradient id="b" x1="0" y1="0" x2="0" y2="1"><stop offset="0%" stop-color="#35135f"/><stop offset="100%" stop-color="#210b3a"/></linearGradient></defs><rect x="20" y="20" width="472" height="472" rx="70" fill="url(#b)" stroke="url(#g)" stroke-width="8"/><path fill="url(#g)" d="M290 120v175c0 24-20 43-47 43s-47-19-47-43 20-43 47-43c12 0 23 4 31 9V155l105-24v145c0 24-20 43-47 43s-47-19-47-43 20-43 47-43c12 0 23 4 31 9V120z"/></svg>